M48
; DRILL file {KiCad (5.1.6)-1} date 01/28/22 10:45:04
; FORMAT={-:-/ absolute / metric / decimal}
; #@! TF.CreationDate,2022-01-28T10:45:04+01:00
; #@! TF.GenerationSoftware,Kicad,Pcbnew,(5.1.6)-1
; #@! TF.FileFunction,Plated,1,2,PTH
FMAT,2
METRIC
T1C0.920
T2C1.000
T3C1.200
T4C1.250
T5C1.400
T6C1.500
T7C1.850
T8C2.300
T9C4.600
%
G90
G05
T1
X191.1Y-79.21
X191.1Y-81.71
X191.1Y-83.71
X191.1Y-86.21
X193.72Y-79.21
X193.72Y-81.71
X193.72Y-83.71
X193.72Y-86.21
T2
X173.71Y-89.62
X178.71Y-89.62
X178.94Y-79.25
X183.94Y-79.25
T3
X199.79Y-57.72
X199.79Y-62.72
T4
X160.73Y-49.21
X160.73Y-56.83
X160.73Y-61.91
X181.05Y-49.21
X181.05Y-59.37
X181.05Y-69.53
T5
X136.24Y-60.4
X140.44Y-60.4
X144.64Y-60.4
X136.24Y-73.88
X140.44Y-73.88
X144.64Y-73.88
T7
X155.99Y-78.36
X160.69Y-78.36
X165.39Y-78.36
T8
X190.75Y-76.14
X190.75Y-89.28
X196.43Y-76.14
X196.43Y-89.28
T9
X165.77Y-88.57
X165.77Y-95.52
T2
X140.22Y-85.47G85X140.22Y-87.47
G05
X142.22Y-91.17G85X144.22Y-91.17
G05
X146.22Y-85.47G85X146.22Y-87.47
G05
T6
X153.45Y-87.57G85X156.95Y-87.57
G05
X155.637Y-94.77G85X155.637Y-91.77
G05
T0
M30
