G04 #@! TF.GenerationSoftware,KiCad,Pcbnew,(5.1.6)-1*
G04 #@! TF.CreationDate,2022-01-28T10:44:45+01:00*
G04 #@! TF.ProjectId,Supply_5V,53757070-6c79-45f3-9556-2e6b69636164,rev?*
G04 #@! TF.SameCoordinates,Original*
G04 #@! TF.FileFunction,Soldermask,Top*
G04 #@! TF.FilePolarity,Negative*
%FSLAX46Y46*%
G04 Gerber Fmt 4.6, Leading zero omitted, Abs format (unit mm)*
G04 Created by KiCad (PCBNEW (5.1.6)-1) date 2022-01-28 10:44:45*
%MOMM*%
%LPD*%
G01*
G04 APERTURE LIST*
%ADD10C,2.500000*%
%ADD11C,3.200000*%
%ADD12C,1.600000*%
%ADD13C,4.000000*%
%ADD14C,2.775000*%
%ADD15R,2.775000X2.775000*%
%ADD16R,2.400000X2.400000*%
%ADD17C,2.400000*%
%ADD18R,3.500000X3.500000*%
%ADD19R,2.100000X2.100000*%
%ADD20C,2.100000*%
%ADD21C,3.000000*%
%ADD22C,6.500000*%
%ADD23R,2.000000X2.000000*%
%ADD24C,2.000000*%
%ADD25R,1.600000X1.400000*%
%ADD26O,7.315200X3.759200*%
%ADD27O,3.759200X6.315200*%
G04 APERTURE END LIST*
G36*
G01*
X161355000Y-63160000D02*
X160105000Y-63160000D01*
G75*
G02*
X159480000Y-62535000I0J625000D01*
G01*
X159480000Y-61285000D01*
G75*
G02*
X160105000Y-60660000I625000J0D01*
G01*
X161355000Y-60660000D01*
G75*
G02*
X161980000Y-61285000I0J-625000D01*
G01*
X161980000Y-62535000D01*
G75*
G02*
X161355000Y-63160000I-625000J0D01*
G01*
G37*
D10*
X160730000Y-56830000D03*
X181050000Y-69530000D03*
X181050000Y-59370000D03*
X181050000Y-49210000D03*
X160730000Y-49210000D03*
D11*
X137750000Y-49070000D03*
X137750000Y-97090000D03*
X201610000Y-49070000D03*
X201610000Y-97090000D03*
D12*
X191100000Y-86210000D03*
X193720000Y-86210000D03*
X191100000Y-83710000D03*
X193720000Y-83710000D03*
X191100000Y-81710000D03*
X193720000Y-81710000D03*
X191100000Y-79210000D03*
X193720000Y-79210000D03*
D13*
X196430000Y-89280000D03*
X196430000Y-76140000D03*
X190750000Y-89280000D03*
X190750000Y-76140000D03*
D14*
X165390000Y-78360000D03*
X160690000Y-78360000D03*
D15*
X155990000Y-78360000D03*
D16*
X199790000Y-62720000D03*
D17*
X199790000Y-57720000D03*
D18*
X146220000Y-86470000D03*
G36*
G01*
X138720000Y-87470000D02*
X138720000Y-85470000D01*
G75*
G02*
X139470000Y-84720000I750000J0D01*
G01*
X140970000Y-84720000D01*
G75*
G02*
X141720000Y-85470000I0J-750000D01*
G01*
X141720000Y-87470000D01*
G75*
G02*
X140970000Y-88220000I-750000J0D01*
G01*
X139470000Y-88220000D01*
G75*
G02*
X138720000Y-87470000I0J750000D01*
G01*
G37*
G36*
G01*
X141470000Y-92045000D02*
X141470000Y-90295000D01*
G75*
G02*
X142345000Y-89420000I875000J0D01*
G01*
X144095000Y-89420000D01*
G75*
G02*
X144970000Y-90295000I0J-875000D01*
G01*
X144970000Y-92045000D01*
G75*
G02*
X144095000Y-92920000I-875000J0D01*
G01*
X142345000Y-92920000D01*
G75*
G02*
X141470000Y-92045000I0J875000D01*
G01*
G37*
D19*
X136240000Y-73880000D03*
D20*
X140440000Y-73880000D03*
X144640000Y-73880000D03*
D21*
X138340000Y-68330000D03*
X144640000Y-77730000D03*
D19*
X136240000Y-60400000D03*
D20*
X140440000Y-60400000D03*
X144640000Y-60400000D03*
D21*
X138340000Y-54850000D03*
X144640000Y-64250000D03*
G36*
G01*
X200365000Y-70759999D02*
X200365000Y-71660001D01*
G75*
G02*
X200115001Y-71910000I-249999J0D01*
G01*
X199464999Y-71910000D01*
G75*
G02*
X199215000Y-71660001I0J249999D01*
G01*
X199215000Y-70759999D01*
G75*
G02*
X199464999Y-70510000I249999J0D01*
G01*
X200115001Y-70510000D01*
G75*
G02*
X200365000Y-70759999I0J-249999D01*
G01*
G37*
G36*
G01*
X198315000Y-70759999D02*
X198315000Y-71660001D01*
G75*
G02*
X198065001Y-71910000I-249999J0D01*
G01*
X197414999Y-71910000D01*
G75*
G02*
X197165000Y-71660001I0J249999D01*
G01*
X197165000Y-70759999D01*
G75*
G02*
X197414999Y-70510000I249999J0D01*
G01*
X198065001Y-70510000D01*
G75*
G02*
X198315000Y-70759999I0J-249999D01*
G01*
G37*
G36*
G01*
X181315000Y-98299999D02*
X181315000Y-99200001D01*
G75*
G02*
X181065001Y-99450000I-249999J0D01*
G01*
X180414999Y-99450000D01*
G75*
G02*
X180165000Y-99200001I0J249999D01*
G01*
X180165000Y-98299999D01*
G75*
G02*
X180414999Y-98050000I249999J0D01*
G01*
X181065001Y-98050000D01*
G75*
G02*
X181315000Y-98299999I0J-249999D01*
G01*
G37*
G36*
G01*
X179265000Y-98299999D02*
X179265000Y-99200001D01*
G75*
G02*
X179015001Y-99450000I-249999J0D01*
G01*
X178364999Y-99450000D01*
G75*
G02*
X178115000Y-99200001I0J249999D01*
G01*
X178115000Y-98299999D01*
G75*
G02*
X178364999Y-98050000I249999J0D01*
G01*
X179015001Y-98050000D01*
G75*
G02*
X179265000Y-98299999I0J-249999D01*
G01*
G37*
G36*
G01*
X197165000Y-68290001D02*
X197165000Y-67389999D01*
G75*
G02*
X197414999Y-67140000I249999J0D01*
G01*
X198065001Y-67140000D01*
G75*
G02*
X198315000Y-67389999I0J-249999D01*
G01*
X198315000Y-68290001D01*
G75*
G02*
X198065001Y-68540000I-249999J0D01*
G01*
X197414999Y-68540000D01*
G75*
G02*
X197165000Y-68290001I0J249999D01*
G01*
G37*
G36*
G01*
X199215000Y-68290001D02*
X199215000Y-67389999D01*
G75*
G02*
X199464999Y-67140000I249999J0D01*
G01*
X200115001Y-67140000D01*
G75*
G02*
X200365000Y-67389999I0J-249999D01*
G01*
X200365000Y-68290001D01*
G75*
G02*
X200115001Y-68540000I-249999J0D01*
G01*
X199464999Y-68540000D01*
G75*
G02*
X199215000Y-68290001I0J249999D01*
G01*
G37*
D22*
X165770000Y-95520000D03*
X165770000Y-88570000D03*
G36*
G01*
X148340001Y-49055000D02*
X147439999Y-49055000D01*
G75*
G02*
X147190000Y-48805001I0J249999D01*
G01*
X147190000Y-48154999D01*
G75*
G02*
X147439999Y-47905000I249999J0D01*
G01*
X148340001Y-47905000D01*
G75*
G02*
X148590000Y-48154999I0J-249999D01*
G01*
X148590000Y-48805001D01*
G75*
G02*
X148340001Y-49055000I-249999J0D01*
G01*
G37*
G36*
G01*
X148340001Y-47005000D02*
X147439999Y-47005000D01*
G75*
G02*
X147190000Y-46755001I0J249999D01*
G01*
X147190000Y-46104999D01*
G75*
G02*
X147439999Y-45855000I249999J0D01*
G01*
X148340001Y-45855000D01*
G75*
G02*
X148590000Y-46104999I0J-249999D01*
G01*
X148590000Y-46755001D01*
G75*
G02*
X148340001Y-47005000I-249999J0D01*
G01*
G37*
G36*
G01*
X144059999Y-45855000D02*
X144960001Y-45855000D01*
G75*
G02*
X145210000Y-46104999I0J-249999D01*
G01*
X145210000Y-46755001D01*
G75*
G02*
X144960001Y-47005000I-249999J0D01*
G01*
X144059999Y-47005000D01*
G75*
G02*
X143810000Y-46755001I0J249999D01*
G01*
X143810000Y-46104999D01*
G75*
G02*
X144059999Y-45855000I249999J0D01*
G01*
G37*
G36*
G01*
X144059999Y-47905000D02*
X144960001Y-47905000D01*
G75*
G02*
X145210000Y-48154999I0J-249999D01*
G01*
X145210000Y-48805001D01*
G75*
G02*
X144960001Y-49055000I-249999J0D01*
G01*
X144059999Y-49055000D01*
G75*
G02*
X143810000Y-48805001I0J249999D01*
G01*
X143810000Y-48154999D01*
G75*
G02*
X144059999Y-47905000I249999J0D01*
G01*
G37*
D23*
X173710000Y-89620000D03*
D24*
X178710000Y-89620000D03*
D25*
X192750000Y-94290000D03*
X184750000Y-94290000D03*
X192750000Y-98790000D03*
X184750000Y-98790000D03*
D23*
X178940000Y-79250000D03*
D24*
X183940000Y-79250000D03*
D26*
X155200000Y-87570000D03*
D27*
X155636600Y-93270000D03*
M02*
