G04 #@! TF.GenerationSoftware,KiCad,Pcbnew,(5.1.6)-1*
G04 #@! TF.CreationDate,2022-01-28T10:44:45+01:00*
G04 #@! TF.ProjectId,Supply_5V,53757070-6c79-45f3-9556-2e6b69636164,rev?*
G04 #@! TF.SameCoordinates,Original*
G04 #@! TF.FileFunction,Legend,Top*
G04 #@! TF.FilePolarity,Positive*
%FSLAX46Y46*%
G04 Gerber Fmt 4.6, Leading zero omitted, Abs format (unit mm)*
G04 Created by KiCad (PCBNEW (5.1.6)-1) date 2022-01-28 10:44:45*
%MOMM*%
%LPD*%
G01*
G04 APERTURE LIST*
%ADD10C,0.300000*%
%ADD11C,0.120000*%
%ADD12C,0.400000*%
%ADD13C,0.200000*%
%ADD14C,0.127000*%
%ADD15C,0.150000*%
%ADD16C,2.500000*%
%ADD17C,3.200000*%
%ADD18C,1.600000*%
%ADD19C,4.000000*%
%ADD20C,2.775000*%
%ADD21R,2.775000X2.775000*%
%ADD22R,2.400000X2.400000*%
%ADD23C,2.400000*%
%ADD24R,3.500000X3.500000*%
%ADD25R,2.100000X2.100000*%
%ADD26C,2.100000*%
%ADD27C,3.000000*%
%ADD28C,6.500000*%
%ADD29R,2.000000X2.000000*%
%ADD30C,2.000000*%
%ADD31R,1.600000X1.400000*%
%ADD32O,7.315200X3.759200*%
%ADD33O,3.759200X6.315200*%
G04 APERTURE END LIST*
D10*
X169521428Y-77498571D02*
X169807142Y-77498571D01*
X169950000Y-77570000D01*
X170092857Y-77712857D01*
X170164285Y-77998571D01*
X170164285Y-78498571D01*
X170092857Y-78784285D01*
X169950000Y-78927142D01*
X169807142Y-78998571D01*
X169521428Y-78998571D01*
X169378571Y-78927142D01*
X169235714Y-78784285D01*
X169164285Y-78498571D01*
X169164285Y-77998571D01*
X169235714Y-77712857D01*
X169378571Y-77570000D01*
X169521428Y-77498571D01*
X170807142Y-78998571D02*
X170807142Y-77498571D01*
X171664285Y-78998571D01*
X171664285Y-77498571D01*
X202873571Y-71660000D02*
X201373571Y-71660000D01*
X201373571Y-71088571D01*
X201445000Y-70945714D01*
X201516428Y-70874285D01*
X201659285Y-70802857D01*
X201873571Y-70802857D01*
X202016428Y-70874285D01*
X202087857Y-70945714D01*
X202159285Y-71088571D01*
X202159285Y-71660000D01*
X201373571Y-70302857D02*
X202873571Y-69945714D01*
X201802142Y-69660000D01*
X202873571Y-69374285D01*
X201373571Y-69017142D01*
X202873571Y-67588571D02*
X202159285Y-68088571D01*
X202873571Y-68445714D02*
X201373571Y-68445714D01*
X201373571Y-67874285D01*
X201445000Y-67731428D01*
X201516428Y-67660000D01*
X201659285Y-67588571D01*
X201873571Y-67588571D01*
X202016428Y-67660000D01*
X202087857Y-67731428D01*
X202159285Y-67874285D01*
X202159285Y-68445714D01*
X203923571Y-70517142D02*
X203923571Y-71231428D01*
X204637857Y-71302857D01*
X204566428Y-71231428D01*
X204495000Y-71088571D01*
X204495000Y-70731428D01*
X204566428Y-70588571D01*
X204637857Y-70517142D01*
X204780714Y-70445714D01*
X205137857Y-70445714D01*
X205280714Y-70517142D01*
X205352142Y-70588571D01*
X205423571Y-70731428D01*
X205423571Y-71088571D01*
X205352142Y-71231428D01*
X205280714Y-71302857D01*
X203923571Y-68874285D02*
X205423571Y-68374285D01*
X203923571Y-67874285D01*
X144130000Y-51463571D02*
X144130000Y-49963571D01*
X144701428Y-49963571D01*
X144844285Y-50035000D01*
X144915714Y-50106428D01*
X144987142Y-50249285D01*
X144987142Y-50463571D01*
X144915714Y-50606428D01*
X144844285Y-50677857D01*
X144701428Y-50749285D01*
X144130000Y-50749285D01*
X145487142Y-49963571D02*
X145844285Y-51463571D01*
X146130000Y-50392142D01*
X146415714Y-51463571D01*
X146772857Y-49963571D01*
X148201428Y-51463571D02*
X147701428Y-50749285D01*
X147344285Y-51463571D02*
X147344285Y-49963571D01*
X147915714Y-49963571D01*
X148058571Y-50035000D01*
X148130000Y-50106428D01*
X148201428Y-50249285D01*
X148201428Y-50463571D01*
X148130000Y-50606428D01*
X148058571Y-50677857D01*
X147915714Y-50749285D01*
X147344285Y-50749285D01*
X144630000Y-54013571D02*
X143772857Y-54013571D01*
X144201428Y-54013571D02*
X144201428Y-52513571D01*
X144058571Y-52727857D01*
X143915714Y-52870714D01*
X143772857Y-52942142D01*
X145201428Y-52656428D02*
X145272857Y-52585000D01*
X145415714Y-52513571D01*
X145772857Y-52513571D01*
X145915714Y-52585000D01*
X145987142Y-52656428D01*
X146058571Y-52799285D01*
X146058571Y-52942142D01*
X145987142Y-53156428D01*
X145130000Y-54013571D01*
X146058571Y-54013571D01*
X147630000Y-52513571D02*
X148130000Y-54013571D01*
X148630000Y-52513571D01*
X149481428Y-77628571D02*
X149767142Y-77628571D01*
X149910000Y-77700000D01*
X150052857Y-77842857D01*
X150124285Y-78128571D01*
X150124285Y-78628571D01*
X150052857Y-78914285D01*
X149910000Y-79057142D01*
X149767142Y-79128571D01*
X149481428Y-79128571D01*
X149338571Y-79057142D01*
X149195714Y-78914285D01*
X149124285Y-78628571D01*
X149124285Y-78128571D01*
X149195714Y-77842857D01*
X149338571Y-77700000D01*
X149481428Y-77628571D01*
X151267142Y-78342857D02*
X150767142Y-78342857D01*
X150767142Y-79128571D02*
X150767142Y-77628571D01*
X151481428Y-77628571D01*
X152552857Y-78342857D02*
X152052857Y-78342857D01*
X152052857Y-79128571D02*
X152052857Y-77628571D01*
X152767142Y-77628571D01*
D11*
X191330000Y-72190000D02*
X191330000Y-46550000D01*
X150450000Y-72190000D02*
X191330000Y-72190000D01*
X150450000Y-46550000D02*
X150450000Y-72190000D01*
X191330000Y-46550000D02*
X150450000Y-46550000D01*
D12*
X195280000Y-86205440D02*
G75*
G03*
X195280000Y-86205440I-120000J0D01*
G01*
D13*
X206209000Y-76106000D02*
X198843000Y-76106000D01*
X207377400Y-90558600D02*
X207377400Y-74861400D01*
X206209000Y-89246000D02*
X198843000Y-89246000D01*
X189699000Y-87155000D02*
X189699000Y-78265000D01*
X206209000Y-90558600D02*
X206209000Y-89246000D01*
X206209000Y-76106000D02*
X206209000Y-74861400D01*
X207377400Y-74861400D02*
X206209000Y-74861400D01*
X207377400Y-90558600D02*
X206209000Y-90558600D01*
X156090000Y-82360000D02*
G75*
G03*
X156090000Y-82360000I-100000J0D01*
G01*
D14*
X154340000Y-80070000D02*
X154340000Y-81790000D01*
X154340000Y-74930000D02*
X154340000Y-76650000D01*
X167040000Y-81790000D02*
X154340000Y-81790000D01*
X167040000Y-80070000D02*
X167040000Y-81790000D01*
X167040000Y-74930000D02*
X167040000Y-76650000D01*
X154340000Y-74930000D02*
X167040000Y-74930000D01*
D11*
X201345000Y-57720000D02*
G75*
G03*
X201345000Y-57720000I-1555000J0D01*
G01*
X204690000Y-65280000D02*
X204690000Y-55160000D01*
X203590000Y-65280000D02*
X203590000Y-55160000D01*
X194930000Y-65280000D02*
X194930000Y-55160000D01*
X205250000Y-65280000D02*
X205250000Y-55160000D01*
X194930000Y-65280000D02*
X205250000Y-65280000D01*
X194930000Y-55160000D02*
X205250000Y-55160000D01*
X204750000Y-65520000D02*
X205490000Y-65520000D01*
X205490000Y-65520000D02*
X205490000Y-65020000D01*
X201221385Y-62112413D02*
G75*
G02*
X201345000Y-62720000I-1431385J-607587D01*
G01*
X199182258Y-61287891D02*
G75*
G02*
X200398000Y-61288000I607742J-1432109D01*
G01*
X198357891Y-63327742D02*
G75*
G02*
X198358000Y-62112000I1432109J607742D01*
G01*
X200397742Y-64152109D02*
G75*
G02*
X199182000Y-64152000I-607742J1432109D01*
G01*
X201345492Y-62692989D02*
G75*
G02*
X201222000Y-63328000I-1555492J-27011D01*
G01*
X147320000Y-82720000D02*
X147320000Y-81670000D01*
X146270000Y-81670000D02*
X147320000Y-81670000D01*
X141220000Y-91070000D02*
X132420000Y-91070000D01*
X132420000Y-91070000D02*
X132420000Y-81870000D01*
X147120000Y-88370000D02*
X147120000Y-91070000D01*
X147120000Y-91070000D02*
X145220000Y-91070000D01*
X132420000Y-81870000D02*
X147120000Y-81870000D01*
X147120000Y-81870000D02*
X147120000Y-84470000D01*
D14*
X147340000Y-71180000D02*
X147340000Y-76580000D01*
X133540000Y-71180000D02*
X147340000Y-71180000D01*
X133540000Y-76580000D02*
X133540000Y-71180000D01*
X147340000Y-76580000D02*
X133540000Y-76580000D01*
D10*
X136440000Y-77290000D02*
G75*
G03*
X136440000Y-77290000I-150000J0D01*
G01*
D14*
X147340000Y-57700000D02*
X147340000Y-63100000D01*
X133540000Y-57700000D02*
X147340000Y-57700000D01*
X133540000Y-63100000D02*
X133540000Y-57700000D01*
X147340000Y-63100000D02*
X133540000Y-63100000D01*
D10*
X136440000Y-63810000D02*
G75*
G03*
X136440000Y-63810000I-150000J0D01*
G01*
D11*
X200625000Y-70250000D02*
X197765000Y-70250000D01*
X200625000Y-72170000D02*
X200625000Y-70250000D01*
X197765000Y-72170000D02*
X200625000Y-72170000D01*
X179976252Y-98040000D02*
X179453748Y-98040000D01*
X179976252Y-99460000D02*
X179453748Y-99460000D01*
X198503748Y-68550000D02*
X199026252Y-68550000D01*
X198503748Y-67130000D02*
X199026252Y-67130000D01*
D10*
X161645000Y-84245000D02*
X161645000Y-96745000D01*
X169895000Y-84245000D02*
X161645000Y-84245000D01*
X169895000Y-96745000D02*
X167520000Y-99845000D01*
X167520000Y-99845000D02*
X164020000Y-99845000D01*
X161645000Y-96745000D02*
X164020000Y-99845000D01*
D13*
X169170000Y-85045000D02*
X162370000Y-85045000D01*
X162370000Y-85045000D02*
X162370000Y-91595000D01*
X162370000Y-96545000D02*
X164270000Y-99045000D01*
X169170000Y-96545000D02*
X167270000Y-99045000D01*
X167270000Y-99045000D02*
X164270000Y-99045000D01*
X169170000Y-85045000D02*
X169170000Y-96545000D01*
D10*
X169895000Y-84245000D02*
X169895000Y-96745000D01*
D13*
X163220000Y-91595000D02*
X163220000Y-92495000D01*
X163220000Y-92495000D02*
X162370000Y-92495000D01*
X163220000Y-91595000D02*
X162370000Y-91595000D01*
X162370000Y-92495000D02*
X162370000Y-96545000D01*
D11*
X148850000Y-49315000D02*
X148850000Y-46455000D01*
X146930000Y-49315000D02*
X148850000Y-49315000D01*
X146930000Y-46455000D02*
X146930000Y-49315000D01*
X143800000Y-47193748D02*
X143800000Y-47716252D01*
X145220000Y-47193748D02*
X145220000Y-47716252D01*
X171230354Y-86245000D02*
X171230354Y-87245000D01*
X170730354Y-86745000D02*
X171730354Y-86745000D01*
X181291000Y-89021000D02*
X181291000Y-90219000D01*
X181251000Y-88758000D02*
X181251000Y-90482000D01*
X181211000Y-88558000D02*
X181211000Y-90682000D01*
X181171000Y-88390000D02*
X181171000Y-90850000D01*
X181131000Y-88242000D02*
X181131000Y-90998000D01*
X181091000Y-88110000D02*
X181091000Y-91130000D01*
X181051000Y-87990000D02*
X181051000Y-91250000D01*
X181011000Y-87878000D02*
X181011000Y-91362000D01*
X180971000Y-87774000D02*
X180971000Y-91466000D01*
X180931000Y-87676000D02*
X180931000Y-91564000D01*
X180891000Y-87583000D02*
X180891000Y-91657000D01*
X180851000Y-87495000D02*
X180851000Y-91745000D01*
X180811000Y-87411000D02*
X180811000Y-91829000D01*
X180771000Y-87331000D02*
X180771000Y-91909000D01*
X180731000Y-87255000D02*
X180731000Y-91985000D01*
X180691000Y-87181000D02*
X180691000Y-92059000D01*
X180651000Y-87110000D02*
X180651000Y-92130000D01*
X180611000Y-87041000D02*
X180611000Y-92199000D01*
X180571000Y-86975000D02*
X180571000Y-92265000D01*
X180531000Y-86911000D02*
X180531000Y-92329000D01*
X180491000Y-86850000D02*
X180491000Y-92390000D01*
X180451000Y-86790000D02*
X180451000Y-92450000D01*
X180411000Y-86731000D02*
X180411000Y-92509000D01*
X180371000Y-86675000D02*
X180371000Y-92565000D01*
X180331000Y-86620000D02*
X180331000Y-92620000D01*
X180291000Y-86566000D02*
X180291000Y-92674000D01*
X180251000Y-86514000D02*
X180251000Y-92726000D01*
X180211000Y-86464000D02*
X180211000Y-92776000D01*
X180171000Y-86414000D02*
X180171000Y-92826000D01*
X180131000Y-86366000D02*
X180131000Y-92874000D01*
X180091000Y-86319000D02*
X180091000Y-92921000D01*
X180051000Y-86273000D02*
X180051000Y-92967000D01*
X180011000Y-86228000D02*
X180011000Y-93012000D01*
X179971000Y-86184000D02*
X179971000Y-93056000D01*
X179931000Y-90861000D02*
X179931000Y-93098000D01*
X179931000Y-86142000D02*
X179931000Y-88379000D01*
X179891000Y-90861000D02*
X179891000Y-93140000D01*
X179891000Y-86100000D02*
X179891000Y-88379000D01*
X179851000Y-90861000D02*
X179851000Y-93181000D01*
X179851000Y-86059000D02*
X179851000Y-88379000D01*
X179811000Y-90861000D02*
X179811000Y-93221000D01*
X179811000Y-86019000D02*
X179811000Y-88379000D01*
X179771000Y-90861000D02*
X179771000Y-93260000D01*
X179771000Y-85980000D02*
X179771000Y-88379000D01*
X179731000Y-90861000D02*
X179731000Y-93299000D01*
X179731000Y-85941000D02*
X179731000Y-88379000D01*
X179691000Y-90861000D02*
X179691000Y-93336000D01*
X179691000Y-85904000D02*
X179691000Y-88379000D01*
X179651000Y-90861000D02*
X179651000Y-93373000D01*
X179651000Y-85867000D02*
X179651000Y-88379000D01*
X179611000Y-90861000D02*
X179611000Y-93409000D01*
X179611000Y-85831000D02*
X179611000Y-88379000D01*
X179571000Y-90861000D02*
X179571000Y-93444000D01*
X179571000Y-85796000D02*
X179571000Y-88379000D01*
X179531000Y-90861000D02*
X179531000Y-93478000D01*
X179531000Y-85762000D02*
X179531000Y-88379000D01*
X179491000Y-90861000D02*
X179491000Y-93512000D01*
X179491000Y-85728000D02*
X179491000Y-88379000D01*
X179451000Y-90861000D02*
X179451000Y-93545000D01*
X179451000Y-85695000D02*
X179451000Y-88379000D01*
X179411000Y-90861000D02*
X179411000Y-93577000D01*
X179411000Y-85663000D02*
X179411000Y-88379000D01*
X179371000Y-90861000D02*
X179371000Y-93609000D01*
X179371000Y-85631000D02*
X179371000Y-88379000D01*
X179331000Y-90861000D02*
X179331000Y-93640000D01*
X179331000Y-85600000D02*
X179331000Y-88379000D01*
X179291000Y-90861000D02*
X179291000Y-93670000D01*
X179291000Y-85570000D02*
X179291000Y-88379000D01*
X179251000Y-90861000D02*
X179251000Y-93700000D01*
X179251000Y-85540000D02*
X179251000Y-88379000D01*
X179211000Y-90861000D02*
X179211000Y-93730000D01*
X179211000Y-85510000D02*
X179211000Y-88379000D01*
X179171000Y-90861000D02*
X179171000Y-93758000D01*
X179171000Y-85482000D02*
X179171000Y-88379000D01*
X179131000Y-90861000D02*
X179131000Y-93786000D01*
X179131000Y-85454000D02*
X179131000Y-88379000D01*
X179091000Y-90861000D02*
X179091000Y-93814000D01*
X179091000Y-85426000D02*
X179091000Y-88379000D01*
X179051000Y-90861000D02*
X179051000Y-93841000D01*
X179051000Y-85399000D02*
X179051000Y-88379000D01*
X179011000Y-90861000D02*
X179011000Y-93867000D01*
X179011000Y-85373000D02*
X179011000Y-88379000D01*
X178971000Y-90861000D02*
X178971000Y-93893000D01*
X178971000Y-85347000D02*
X178971000Y-88379000D01*
X178931000Y-90861000D02*
X178931000Y-93918000D01*
X178931000Y-85322000D02*
X178931000Y-88379000D01*
X178891000Y-90861000D02*
X178891000Y-93943000D01*
X178891000Y-85297000D02*
X178891000Y-88379000D01*
X178851000Y-90861000D02*
X178851000Y-93967000D01*
X178851000Y-85273000D02*
X178851000Y-88379000D01*
X178811000Y-90861000D02*
X178811000Y-93991000D01*
X178811000Y-85249000D02*
X178811000Y-88379000D01*
X178771000Y-90861000D02*
X178771000Y-94015000D01*
X178771000Y-85225000D02*
X178771000Y-88379000D01*
X178731000Y-90861000D02*
X178731000Y-94037000D01*
X178731000Y-85203000D02*
X178731000Y-88379000D01*
X178691000Y-90861000D02*
X178691000Y-94060000D01*
X178691000Y-85180000D02*
X178691000Y-88379000D01*
X178651000Y-90861000D02*
X178651000Y-94082000D01*
X178651000Y-85158000D02*
X178651000Y-88379000D01*
X178611000Y-90861000D02*
X178611000Y-94103000D01*
X178611000Y-85137000D02*
X178611000Y-88379000D01*
X178571000Y-90861000D02*
X178571000Y-94124000D01*
X178571000Y-85116000D02*
X178571000Y-88379000D01*
X178531000Y-90861000D02*
X178531000Y-94145000D01*
X178531000Y-85095000D02*
X178531000Y-88379000D01*
X178491000Y-90861000D02*
X178491000Y-94165000D01*
X178491000Y-85075000D02*
X178491000Y-88379000D01*
X178451000Y-90861000D02*
X178451000Y-94184000D01*
X178451000Y-85056000D02*
X178451000Y-88379000D01*
X178411000Y-90861000D02*
X178411000Y-94204000D01*
X178411000Y-85036000D02*
X178411000Y-88379000D01*
X178371000Y-90861000D02*
X178371000Y-94223000D01*
X178371000Y-85017000D02*
X178371000Y-88379000D01*
X178331000Y-90861000D02*
X178331000Y-94241000D01*
X178331000Y-84999000D02*
X178331000Y-88379000D01*
X178291000Y-90861000D02*
X178291000Y-94259000D01*
X178291000Y-84981000D02*
X178291000Y-88379000D01*
X178251000Y-90861000D02*
X178251000Y-94277000D01*
X178251000Y-84963000D02*
X178251000Y-88379000D01*
X178211000Y-90861000D02*
X178211000Y-94294000D01*
X178211000Y-84946000D02*
X178211000Y-88379000D01*
X178171000Y-90861000D02*
X178171000Y-94310000D01*
X178171000Y-84930000D02*
X178171000Y-88379000D01*
X178131000Y-90861000D02*
X178131000Y-94327000D01*
X178131000Y-84913000D02*
X178131000Y-88379000D01*
X178091000Y-90861000D02*
X178091000Y-94343000D01*
X178091000Y-84897000D02*
X178091000Y-88379000D01*
X178051000Y-90861000D02*
X178051000Y-94358000D01*
X178051000Y-84882000D02*
X178051000Y-88379000D01*
X178011000Y-90861000D02*
X178011000Y-94374000D01*
X178011000Y-84866000D02*
X178011000Y-88379000D01*
X177971000Y-90861000D02*
X177971000Y-94388000D01*
X177971000Y-84852000D02*
X177971000Y-88379000D01*
X177931000Y-90861000D02*
X177931000Y-94403000D01*
X177931000Y-84837000D02*
X177931000Y-88379000D01*
X177891000Y-90861000D02*
X177891000Y-94417000D01*
X177891000Y-84823000D02*
X177891000Y-88379000D01*
X177851000Y-90861000D02*
X177851000Y-94431000D01*
X177851000Y-84809000D02*
X177851000Y-88379000D01*
X177811000Y-90861000D02*
X177811000Y-94444000D01*
X177811000Y-84796000D02*
X177811000Y-88379000D01*
X177771000Y-90861000D02*
X177771000Y-94457000D01*
X177771000Y-84783000D02*
X177771000Y-88379000D01*
X177731000Y-90861000D02*
X177731000Y-94470000D01*
X177731000Y-84770000D02*
X177731000Y-88379000D01*
X177691000Y-90861000D02*
X177691000Y-94482000D01*
X177691000Y-84758000D02*
X177691000Y-88379000D01*
X177651000Y-90861000D02*
X177651000Y-94494000D01*
X177651000Y-84746000D02*
X177651000Y-88379000D01*
X177611000Y-90861000D02*
X177611000Y-94505000D01*
X177611000Y-84735000D02*
X177611000Y-88379000D01*
X177571000Y-90861000D02*
X177571000Y-94517000D01*
X177571000Y-84723000D02*
X177571000Y-88379000D01*
X177531000Y-90861000D02*
X177531000Y-94527000D01*
X177531000Y-84713000D02*
X177531000Y-88379000D01*
X177491000Y-90861000D02*
X177491000Y-94538000D01*
X177491000Y-84702000D02*
X177491000Y-88379000D01*
X177451000Y-84692000D02*
X177451000Y-94548000D01*
X177411000Y-84682000D02*
X177411000Y-94558000D01*
X177371000Y-84673000D02*
X177371000Y-94567000D01*
X177331000Y-84664000D02*
X177331000Y-94576000D01*
X177291000Y-84655000D02*
X177291000Y-94585000D01*
X177251000Y-84646000D02*
X177251000Y-94594000D01*
X177211000Y-84638000D02*
X177211000Y-94602000D01*
X177171000Y-84630000D02*
X177171000Y-94610000D01*
X177131000Y-84623000D02*
X177131000Y-94617000D01*
X177091000Y-84616000D02*
X177091000Y-94624000D01*
X177051000Y-84609000D02*
X177051000Y-94631000D01*
X177011000Y-84602000D02*
X177011000Y-94638000D01*
X176971000Y-84596000D02*
X176971000Y-94644000D01*
X176931000Y-84590000D02*
X176931000Y-94650000D01*
X176890000Y-84585000D02*
X176890000Y-94655000D01*
X176850000Y-84580000D02*
X176850000Y-94660000D01*
X176810000Y-84575000D02*
X176810000Y-94665000D01*
X176770000Y-84570000D02*
X176770000Y-94670000D01*
X176730000Y-84566000D02*
X176730000Y-94674000D01*
X176690000Y-84562000D02*
X176690000Y-94678000D01*
X176650000Y-84558000D02*
X176650000Y-94682000D01*
X176610000Y-84555000D02*
X176610000Y-94685000D01*
X176570000Y-84552000D02*
X176570000Y-94688000D01*
X176530000Y-84550000D02*
X176530000Y-94690000D01*
X176490000Y-84547000D02*
X176490000Y-94693000D01*
X176450000Y-84545000D02*
X176450000Y-94695000D01*
X176410000Y-84543000D02*
X176410000Y-94697000D01*
X176370000Y-84542000D02*
X176370000Y-94698000D01*
X176330000Y-84541000D02*
X176330000Y-94699000D01*
X176290000Y-84540000D02*
X176290000Y-94700000D01*
X176250000Y-84540000D02*
X176250000Y-94700000D01*
X176210000Y-84540000D02*
X176210000Y-94700000D01*
X181330000Y-89620000D02*
G75*
G03*
X181330000Y-89620000I-5120000J0D01*
G01*
X183650000Y-93240000D02*
X184650000Y-93240000D01*
X183650000Y-94240000D02*
X183650000Y-93240000D01*
X185650000Y-95240000D02*
X185650000Y-97840000D01*
X191850000Y-95240000D02*
X191850000Y-97840000D01*
X191750000Y-99790000D02*
X185750000Y-99790000D01*
X191650000Y-93290000D02*
X185850000Y-93290000D01*
X176460354Y-75875000D02*
X176460354Y-76875000D01*
X175960354Y-76375000D02*
X176960354Y-76375000D01*
X186521000Y-78651000D02*
X186521000Y-79849000D01*
X186481000Y-78388000D02*
X186481000Y-80112000D01*
X186441000Y-78188000D02*
X186441000Y-80312000D01*
X186401000Y-78020000D02*
X186401000Y-80480000D01*
X186361000Y-77872000D02*
X186361000Y-80628000D01*
X186321000Y-77740000D02*
X186321000Y-80760000D01*
X186281000Y-77620000D02*
X186281000Y-80880000D01*
X186241000Y-77508000D02*
X186241000Y-80992000D01*
X186201000Y-77404000D02*
X186201000Y-81096000D01*
X186161000Y-77306000D02*
X186161000Y-81194000D01*
X186121000Y-77213000D02*
X186121000Y-81287000D01*
X186081000Y-77125000D02*
X186081000Y-81375000D01*
X186041000Y-77041000D02*
X186041000Y-81459000D01*
X186001000Y-76961000D02*
X186001000Y-81539000D01*
X185961000Y-76885000D02*
X185961000Y-81615000D01*
X185921000Y-76811000D02*
X185921000Y-81689000D01*
X185881000Y-76740000D02*
X185881000Y-81760000D01*
X185841000Y-76671000D02*
X185841000Y-81829000D01*
X185801000Y-76605000D02*
X185801000Y-81895000D01*
X185761000Y-76541000D02*
X185761000Y-81959000D01*
X185721000Y-76480000D02*
X185721000Y-82020000D01*
X185681000Y-76420000D02*
X185681000Y-82080000D01*
X185641000Y-76361000D02*
X185641000Y-82139000D01*
X185601000Y-76305000D02*
X185601000Y-82195000D01*
X185561000Y-76250000D02*
X185561000Y-82250000D01*
X185521000Y-76196000D02*
X185521000Y-82304000D01*
X185481000Y-76144000D02*
X185481000Y-82356000D01*
X185441000Y-76094000D02*
X185441000Y-82406000D01*
X185401000Y-76044000D02*
X185401000Y-82456000D01*
X185361000Y-75996000D02*
X185361000Y-82504000D01*
X185321000Y-75949000D02*
X185321000Y-82551000D01*
X185281000Y-75903000D02*
X185281000Y-82597000D01*
X185241000Y-75858000D02*
X185241000Y-82642000D01*
X185201000Y-75814000D02*
X185201000Y-82686000D01*
X185161000Y-80491000D02*
X185161000Y-82728000D01*
X185161000Y-75772000D02*
X185161000Y-78009000D01*
X185121000Y-80491000D02*
X185121000Y-82770000D01*
X185121000Y-75730000D02*
X185121000Y-78009000D01*
X185081000Y-80491000D02*
X185081000Y-82811000D01*
X185081000Y-75689000D02*
X185081000Y-78009000D01*
X185041000Y-80491000D02*
X185041000Y-82851000D01*
X185041000Y-75649000D02*
X185041000Y-78009000D01*
X185001000Y-80491000D02*
X185001000Y-82890000D01*
X185001000Y-75610000D02*
X185001000Y-78009000D01*
X184961000Y-80491000D02*
X184961000Y-82929000D01*
X184961000Y-75571000D02*
X184961000Y-78009000D01*
X184921000Y-80491000D02*
X184921000Y-82966000D01*
X184921000Y-75534000D02*
X184921000Y-78009000D01*
X184881000Y-80491000D02*
X184881000Y-83003000D01*
X184881000Y-75497000D02*
X184881000Y-78009000D01*
X184841000Y-80491000D02*
X184841000Y-83039000D01*
X184841000Y-75461000D02*
X184841000Y-78009000D01*
X184801000Y-80491000D02*
X184801000Y-83074000D01*
X184801000Y-75426000D02*
X184801000Y-78009000D01*
X184761000Y-80491000D02*
X184761000Y-83108000D01*
X184761000Y-75392000D02*
X184761000Y-78009000D01*
X184721000Y-80491000D02*
X184721000Y-83142000D01*
X184721000Y-75358000D02*
X184721000Y-78009000D01*
X184681000Y-80491000D02*
X184681000Y-83175000D01*
X184681000Y-75325000D02*
X184681000Y-78009000D01*
X184641000Y-80491000D02*
X184641000Y-83207000D01*
X184641000Y-75293000D02*
X184641000Y-78009000D01*
X184601000Y-80491000D02*
X184601000Y-83239000D01*
X184601000Y-75261000D02*
X184601000Y-78009000D01*
X184561000Y-80491000D02*
X184561000Y-83270000D01*
X184561000Y-75230000D02*
X184561000Y-78009000D01*
X184521000Y-80491000D02*
X184521000Y-83300000D01*
X184521000Y-75200000D02*
X184521000Y-78009000D01*
X184481000Y-80491000D02*
X184481000Y-83330000D01*
X184481000Y-75170000D02*
X184481000Y-78009000D01*
X184441000Y-80491000D02*
X184441000Y-83360000D01*
X184441000Y-75140000D02*
X184441000Y-78009000D01*
X184401000Y-80491000D02*
X184401000Y-83388000D01*
X184401000Y-75112000D02*
X184401000Y-78009000D01*
X184361000Y-80491000D02*
X184361000Y-83416000D01*
X184361000Y-75084000D02*
X184361000Y-78009000D01*
X184321000Y-80491000D02*
X184321000Y-83444000D01*
X184321000Y-75056000D02*
X184321000Y-78009000D01*
X184281000Y-80491000D02*
X184281000Y-83471000D01*
X184281000Y-75029000D02*
X184281000Y-78009000D01*
X184241000Y-80491000D02*
X184241000Y-83497000D01*
X184241000Y-75003000D02*
X184241000Y-78009000D01*
X184201000Y-80491000D02*
X184201000Y-83523000D01*
X184201000Y-74977000D02*
X184201000Y-78009000D01*
X184161000Y-80491000D02*
X184161000Y-83548000D01*
X184161000Y-74952000D02*
X184161000Y-78009000D01*
X184121000Y-80491000D02*
X184121000Y-83573000D01*
X184121000Y-74927000D02*
X184121000Y-78009000D01*
X184081000Y-80491000D02*
X184081000Y-83597000D01*
X184081000Y-74903000D02*
X184081000Y-78009000D01*
X184041000Y-80491000D02*
X184041000Y-83621000D01*
X184041000Y-74879000D02*
X184041000Y-78009000D01*
X184001000Y-80491000D02*
X184001000Y-83645000D01*
X184001000Y-74855000D02*
X184001000Y-78009000D01*
X183961000Y-80491000D02*
X183961000Y-83667000D01*
X183961000Y-74833000D02*
X183961000Y-78009000D01*
X183921000Y-80491000D02*
X183921000Y-83690000D01*
X183921000Y-74810000D02*
X183921000Y-78009000D01*
X183881000Y-80491000D02*
X183881000Y-83712000D01*
X183881000Y-74788000D02*
X183881000Y-78009000D01*
X183841000Y-80491000D02*
X183841000Y-83733000D01*
X183841000Y-74767000D02*
X183841000Y-78009000D01*
X183801000Y-80491000D02*
X183801000Y-83754000D01*
X183801000Y-74746000D02*
X183801000Y-78009000D01*
X183761000Y-80491000D02*
X183761000Y-83775000D01*
X183761000Y-74725000D02*
X183761000Y-78009000D01*
X183721000Y-80491000D02*
X183721000Y-83795000D01*
X183721000Y-74705000D02*
X183721000Y-78009000D01*
X183681000Y-80491000D02*
X183681000Y-83814000D01*
X183681000Y-74686000D02*
X183681000Y-78009000D01*
X183641000Y-80491000D02*
X183641000Y-83834000D01*
X183641000Y-74666000D02*
X183641000Y-78009000D01*
X183601000Y-80491000D02*
X183601000Y-83853000D01*
X183601000Y-74647000D02*
X183601000Y-78009000D01*
X183561000Y-80491000D02*
X183561000Y-83871000D01*
X183561000Y-74629000D02*
X183561000Y-78009000D01*
X183521000Y-80491000D02*
X183521000Y-83889000D01*
X183521000Y-74611000D02*
X183521000Y-78009000D01*
X183481000Y-80491000D02*
X183481000Y-83907000D01*
X183481000Y-74593000D02*
X183481000Y-78009000D01*
X183441000Y-80491000D02*
X183441000Y-83924000D01*
X183441000Y-74576000D02*
X183441000Y-78009000D01*
X183401000Y-80491000D02*
X183401000Y-83940000D01*
X183401000Y-74560000D02*
X183401000Y-78009000D01*
X183361000Y-80491000D02*
X183361000Y-83957000D01*
X183361000Y-74543000D02*
X183361000Y-78009000D01*
X183321000Y-80491000D02*
X183321000Y-83973000D01*
X183321000Y-74527000D02*
X183321000Y-78009000D01*
X183281000Y-80491000D02*
X183281000Y-83988000D01*
X183281000Y-74512000D02*
X183281000Y-78009000D01*
X183241000Y-80491000D02*
X183241000Y-84004000D01*
X183241000Y-74496000D02*
X183241000Y-78009000D01*
X183201000Y-80491000D02*
X183201000Y-84018000D01*
X183201000Y-74482000D02*
X183201000Y-78009000D01*
X183161000Y-80491000D02*
X183161000Y-84033000D01*
X183161000Y-74467000D02*
X183161000Y-78009000D01*
X183121000Y-80491000D02*
X183121000Y-84047000D01*
X183121000Y-74453000D02*
X183121000Y-78009000D01*
X183081000Y-80491000D02*
X183081000Y-84061000D01*
X183081000Y-74439000D02*
X183081000Y-78009000D01*
X183041000Y-80491000D02*
X183041000Y-84074000D01*
X183041000Y-74426000D02*
X183041000Y-78009000D01*
X183001000Y-80491000D02*
X183001000Y-84087000D01*
X183001000Y-74413000D02*
X183001000Y-78009000D01*
X182961000Y-80491000D02*
X182961000Y-84100000D01*
X182961000Y-74400000D02*
X182961000Y-78009000D01*
X182921000Y-80491000D02*
X182921000Y-84112000D01*
X182921000Y-74388000D02*
X182921000Y-78009000D01*
X182881000Y-80491000D02*
X182881000Y-84124000D01*
X182881000Y-74376000D02*
X182881000Y-78009000D01*
X182841000Y-80491000D02*
X182841000Y-84135000D01*
X182841000Y-74365000D02*
X182841000Y-78009000D01*
X182801000Y-80491000D02*
X182801000Y-84147000D01*
X182801000Y-74353000D02*
X182801000Y-78009000D01*
X182761000Y-80491000D02*
X182761000Y-84157000D01*
X182761000Y-74343000D02*
X182761000Y-78009000D01*
X182721000Y-80491000D02*
X182721000Y-84168000D01*
X182721000Y-74332000D02*
X182721000Y-78009000D01*
X182681000Y-74322000D02*
X182681000Y-84178000D01*
X182641000Y-74312000D02*
X182641000Y-84188000D01*
X182601000Y-74303000D02*
X182601000Y-84197000D01*
X182561000Y-74294000D02*
X182561000Y-84206000D01*
X182521000Y-74285000D02*
X182521000Y-84215000D01*
X182481000Y-74276000D02*
X182481000Y-84224000D01*
X182441000Y-74268000D02*
X182441000Y-84232000D01*
X182401000Y-74260000D02*
X182401000Y-84240000D01*
X182361000Y-74253000D02*
X182361000Y-84247000D01*
X182321000Y-74246000D02*
X182321000Y-84254000D01*
X182281000Y-74239000D02*
X182281000Y-84261000D01*
X182241000Y-74232000D02*
X182241000Y-84268000D01*
X182201000Y-74226000D02*
X182201000Y-84274000D01*
X182161000Y-74220000D02*
X182161000Y-84280000D01*
X182120000Y-74215000D02*
X182120000Y-84285000D01*
X182080000Y-74210000D02*
X182080000Y-84290000D01*
X182040000Y-74205000D02*
X182040000Y-84295000D01*
X182000000Y-74200000D02*
X182000000Y-84300000D01*
X181960000Y-74196000D02*
X181960000Y-84304000D01*
X181920000Y-74192000D02*
X181920000Y-84308000D01*
X181880000Y-74188000D02*
X181880000Y-84312000D01*
X181840000Y-74185000D02*
X181840000Y-84315000D01*
X181800000Y-74182000D02*
X181800000Y-84318000D01*
X181760000Y-74180000D02*
X181760000Y-84320000D01*
X181720000Y-74177000D02*
X181720000Y-84323000D01*
X181680000Y-74175000D02*
X181680000Y-84325000D01*
X181640000Y-74173000D02*
X181640000Y-84327000D01*
X181600000Y-74172000D02*
X181600000Y-84328000D01*
X181560000Y-74171000D02*
X181560000Y-84329000D01*
X181520000Y-74170000D02*
X181520000Y-84330000D01*
X181480000Y-74170000D02*
X181480000Y-84330000D01*
X181440000Y-74170000D02*
X181440000Y-84330000D01*
X186560000Y-79250000D02*
G75*
G03*
X186560000Y-79250000I-5120000J0D01*
G01*
D14*
X152868000Y-95190000D02*
X152868000Y-94174000D01*
X152614000Y-90364000D02*
X153630000Y-90364000D01*
X153122000Y-89856000D02*
X153122000Y-90872000D01*
D15*
X149212380Y-60161904D02*
X150021904Y-60161904D01*
X150117142Y-60114285D01*
X150164761Y-60066666D01*
X150212380Y-59971428D01*
X150212380Y-59780952D01*
X150164761Y-59685714D01*
X150117142Y-59638095D01*
X150021904Y-59590476D01*
X149212380Y-59590476D01*
X150212380Y-58590476D02*
X150212380Y-59161904D01*
X150212380Y-58876190D02*
X149212380Y-58876190D01*
X149355238Y-58971428D01*
X149450476Y-59066666D01*
X149498095Y-59161904D01*
X186223482Y-83773532D02*
X187366766Y-83773532D01*
X187595423Y-83849751D01*
X187747861Y-84002189D01*
X187824080Y-84230846D01*
X187824080Y-84383284D01*
X186223482Y-82249153D02*
X186223482Y-83011343D01*
X186985671Y-83087562D01*
X186909452Y-83011343D01*
X186833233Y-82858905D01*
X186833233Y-82477810D01*
X186909452Y-82325372D01*
X186985671Y-82249153D01*
X187138109Y-82172934D01*
X187519204Y-82172934D01*
X187671642Y-82249153D01*
X187747861Y-82325372D01*
X187824080Y-82477810D01*
X187824080Y-82858905D01*
X187747861Y-83011343D01*
X187671642Y-83087562D01*
X159938095Y-83244761D02*
X160080952Y-83292380D01*
X160319047Y-83292380D01*
X160414285Y-83244761D01*
X160461904Y-83197142D01*
X160509523Y-83101904D01*
X160509523Y-83006666D01*
X160461904Y-82911428D01*
X160414285Y-82863809D01*
X160319047Y-82816190D01*
X160128571Y-82768571D01*
X160033333Y-82720952D01*
X159985714Y-82673333D01*
X159938095Y-82578095D01*
X159938095Y-82482857D01*
X159985714Y-82387619D01*
X160033333Y-82340000D01*
X160128571Y-82292380D01*
X160366666Y-82292380D01*
X160509523Y-82340000D01*
X161461904Y-83292380D02*
X160890476Y-83292380D01*
X161176190Y-83292380D02*
X161176190Y-82292380D01*
X161080952Y-82435238D01*
X160985714Y-82530476D01*
X160890476Y-82578095D01*
X193262380Y-60493333D02*
X193976666Y-60493333D01*
X194119523Y-60540952D01*
X194214761Y-60636190D01*
X194262380Y-60779047D01*
X194262380Y-60874285D01*
X193595714Y-59588571D02*
X194262380Y-59588571D01*
X193214761Y-59826666D02*
X193929047Y-60064761D01*
X193929047Y-59445714D01*
X206152380Y-64380476D02*
X206152380Y-64190000D01*
X206200000Y-64094761D01*
X206295238Y-63999523D01*
X206485714Y-63951904D01*
X206819047Y-63951904D01*
X207009523Y-63999523D01*
X207104761Y-64094761D01*
X207152380Y-64190000D01*
X207152380Y-64380476D01*
X207104761Y-64475714D01*
X207009523Y-64570952D01*
X206819047Y-64618571D01*
X206485714Y-64618571D01*
X206295238Y-64570952D01*
X206200000Y-64475714D01*
X206152380Y-64380476D01*
X206152380Y-63523333D02*
X206961904Y-63523333D01*
X207057142Y-63475714D01*
X207104761Y-63428095D01*
X207152380Y-63332857D01*
X207152380Y-63142380D01*
X207104761Y-63047142D01*
X207057142Y-62999523D01*
X206961904Y-62951904D01*
X206152380Y-62951904D01*
X206152380Y-62618571D02*
X206152380Y-62047142D01*
X207152380Y-62332857D02*
X206152380Y-62332857D01*
X207152380Y-61713809D02*
X206152380Y-61713809D01*
X206152380Y-61332857D01*
X206200000Y-61237619D01*
X206247619Y-61190000D01*
X206342857Y-61142380D01*
X206485714Y-61142380D01*
X206580952Y-61190000D01*
X206628571Y-61237619D01*
X206676190Y-61332857D01*
X206676190Y-61713809D01*
X206152380Y-60713809D02*
X206961904Y-60713809D01*
X207057142Y-60666190D01*
X207104761Y-60618571D01*
X207152380Y-60523333D01*
X207152380Y-60332857D01*
X207104761Y-60237619D01*
X207057142Y-60190000D01*
X206961904Y-60142380D01*
X206152380Y-60142380D01*
X206152380Y-59809047D02*
X206152380Y-59237619D01*
X207152380Y-59523333D02*
X206152380Y-59523333D01*
X206152380Y-57666190D02*
X206152380Y-58142380D01*
X206628571Y-58190000D01*
X206580952Y-58142380D01*
X206533333Y-58047142D01*
X206533333Y-57809047D01*
X206580952Y-57713809D01*
X206628571Y-57666190D01*
X206723809Y-57618571D01*
X206961904Y-57618571D01*
X207057142Y-57666190D01*
X207104761Y-57713809D01*
X207152380Y-57809047D01*
X207152380Y-58047142D01*
X207104761Y-58142380D01*
X207057142Y-58190000D01*
X206152380Y-57332857D02*
X207152380Y-56999523D01*
X206152380Y-56666190D01*
X137436666Y-91672380D02*
X137436666Y-92386666D01*
X137389047Y-92529523D01*
X137293809Y-92624761D01*
X137150952Y-92672380D01*
X137055714Y-92672380D01*
X138436666Y-92672380D02*
X137865238Y-92672380D01*
X138150952Y-92672380D02*
X138150952Y-91672380D01*
X138055714Y-91815238D01*
X137960476Y-91910476D01*
X137865238Y-91958095D01*
X143733352Y-80730783D02*
X143733352Y-79728822D01*
X144115051Y-79728822D01*
X144210476Y-79776534D01*
X144258189Y-79824246D01*
X144305901Y-79919671D01*
X144305901Y-80062809D01*
X144258189Y-80158233D01*
X144210476Y-80205946D01*
X144115051Y-80253658D01*
X143733352Y-80253658D01*
X145260150Y-80730783D02*
X144687600Y-80730783D01*
X144973875Y-80730783D02*
X144973875Y-79728822D01*
X144878450Y-79871959D01*
X144783025Y-79967384D01*
X144687600Y-80015096D01*
X143733352Y-67250783D02*
X143733352Y-66248822D01*
X144115051Y-66248822D01*
X144210476Y-66296534D01*
X144258189Y-66344246D01*
X144305901Y-66439671D01*
X144305901Y-66582809D01*
X144258189Y-66678233D01*
X144210476Y-66725946D01*
X144115051Y-66773658D01*
X143733352Y-66773658D01*
X144687600Y-66344246D02*
X144735313Y-66296534D01*
X144830738Y-66248822D01*
X145069300Y-66248822D01*
X145164725Y-66296534D01*
X145212437Y-66344246D01*
X145260150Y-66439671D01*
X145260150Y-66535096D01*
X145212437Y-66678233D01*
X144639888Y-67250783D01*
X145260150Y-67250783D01*
X194551904Y-71662380D02*
X194551904Y-70662380D01*
X194790000Y-70662380D01*
X194932857Y-70710000D01*
X195028095Y-70805238D01*
X195075714Y-70900476D01*
X195123333Y-71090952D01*
X195123333Y-71233809D01*
X195075714Y-71424285D01*
X195028095Y-71519523D01*
X194932857Y-71614761D01*
X194790000Y-71662380D01*
X194551904Y-71662380D01*
X195504285Y-70757619D02*
X195551904Y-70710000D01*
X195647142Y-70662380D01*
X195885238Y-70662380D01*
X195980476Y-70710000D01*
X196028095Y-70757619D01*
X196075714Y-70852857D01*
X196075714Y-70948095D01*
X196028095Y-71090952D01*
X195456666Y-71662380D01*
X196075714Y-71662380D01*
X176628333Y-99162380D02*
X176295000Y-98686190D01*
X176056904Y-99162380D02*
X176056904Y-98162380D01*
X176437857Y-98162380D01*
X176533095Y-98210000D01*
X176580714Y-98257619D01*
X176628333Y-98352857D01*
X176628333Y-98495714D01*
X176580714Y-98590952D01*
X176533095Y-98638571D01*
X176437857Y-98686190D01*
X176056904Y-98686190D01*
X177009285Y-98257619D02*
X177056904Y-98210000D01*
X177152142Y-98162380D01*
X177390238Y-98162380D01*
X177485476Y-98210000D01*
X177533095Y-98257619D01*
X177580714Y-98352857D01*
X177580714Y-98448095D01*
X177533095Y-98590952D01*
X176961666Y-99162380D01*
X177580714Y-99162380D01*
X195173333Y-68292380D02*
X194840000Y-67816190D01*
X194601904Y-68292380D02*
X194601904Y-67292380D01*
X194982857Y-67292380D01*
X195078095Y-67340000D01*
X195125714Y-67387619D01*
X195173333Y-67482857D01*
X195173333Y-67625714D01*
X195125714Y-67720952D01*
X195078095Y-67768571D01*
X194982857Y-67816190D01*
X194601904Y-67816190D01*
X195506666Y-67292380D02*
X196125714Y-67292380D01*
X195792380Y-67673333D01*
X195935238Y-67673333D01*
X196030476Y-67720952D01*
X196078095Y-67768571D01*
X196125714Y-67863809D01*
X196125714Y-68101904D01*
X196078095Y-68197142D01*
X196030476Y-68244761D01*
X195935238Y-68292380D01*
X195649523Y-68292380D01*
X195554285Y-68244761D01*
X195506666Y-68197142D01*
D13*
X169962380Y-98983333D02*
X170676666Y-98983333D01*
X170819523Y-99030952D01*
X170914761Y-99126190D01*
X170962380Y-99269047D01*
X170962380Y-99364285D01*
X169962380Y-98602380D02*
X169962380Y-97983333D01*
X170343333Y-98316666D01*
X170343333Y-98173809D01*
X170390952Y-98078571D01*
X170438571Y-98030952D01*
X170533809Y-97983333D01*
X170771904Y-97983333D01*
X170867142Y-98030952D01*
X170914761Y-98078571D01*
X170962380Y-98173809D01*
X170962380Y-98459523D01*
X170914761Y-98554761D01*
X170867142Y-98602380D01*
X168722380Y-92378333D02*
X167722380Y-92378333D01*
X168436666Y-92045000D01*
X167722380Y-91711666D01*
X168722380Y-91711666D01*
X168631428Y-86105952D02*
X168631428Y-85344047D01*
X169012380Y-85725000D02*
X168250476Y-85725000D01*
D15*
X146692380Y-48193095D02*
X145692380Y-48193095D01*
X145692380Y-47955000D01*
X145740000Y-47812142D01*
X145835238Y-47716904D01*
X145930476Y-47669285D01*
X146120952Y-47621666D01*
X146263809Y-47621666D01*
X146454285Y-47669285D01*
X146549523Y-47716904D01*
X146644761Y-47812142D01*
X146692380Y-47955000D01*
X146692380Y-48193095D01*
X146692380Y-46669285D02*
X146692380Y-47240714D01*
X146692380Y-46955000D02*
X145692380Y-46955000D01*
X145835238Y-47050238D01*
X145930476Y-47145476D01*
X145978095Y-47240714D01*
X143292380Y-47516666D02*
X142816190Y-47850000D01*
X143292380Y-48088095D02*
X142292380Y-48088095D01*
X142292380Y-47707142D01*
X142340000Y-47611904D01*
X142387619Y-47564285D01*
X142482857Y-47516666D01*
X142625714Y-47516666D01*
X142720952Y-47564285D01*
X142768571Y-47611904D01*
X142816190Y-47707142D01*
X142816190Y-48088095D01*
X143292380Y-46564285D02*
X143292380Y-47135714D01*
X143292380Y-46850000D02*
X142292380Y-46850000D01*
X142435238Y-46945238D01*
X142530476Y-47040476D01*
X142578095Y-47135714D01*
X176043333Y-83727142D02*
X175995714Y-83774761D01*
X175852857Y-83822380D01*
X175757619Y-83822380D01*
X175614761Y-83774761D01*
X175519523Y-83679523D01*
X175471904Y-83584285D01*
X175424285Y-83393809D01*
X175424285Y-83250952D01*
X175471904Y-83060476D01*
X175519523Y-82965238D01*
X175614761Y-82870000D01*
X175757619Y-82822380D01*
X175852857Y-82822380D01*
X175995714Y-82870000D01*
X176043333Y-82917619D01*
X176995714Y-83822380D02*
X176424285Y-83822380D01*
X176710000Y-83822380D02*
X176710000Y-82822380D01*
X176614761Y-82965238D01*
X176519523Y-83060476D01*
X176424285Y-83108095D01*
X187416666Y-92644761D02*
X187559523Y-92692380D01*
X187797619Y-92692380D01*
X187892857Y-92644761D01*
X187940476Y-92597142D01*
X187988095Y-92501904D01*
X187988095Y-92406666D01*
X187940476Y-92311428D01*
X187892857Y-92263809D01*
X187797619Y-92216190D01*
X187607142Y-92168571D01*
X187511904Y-92120952D01*
X187464285Y-92073333D01*
X187416666Y-91978095D01*
X187416666Y-91882857D01*
X187464285Y-91787619D01*
X187511904Y-91740000D01*
X187607142Y-91692380D01*
X187845238Y-91692380D01*
X187988095Y-91740000D01*
X188321428Y-91692380D02*
X188559523Y-92692380D01*
X188750000Y-91978095D01*
X188940476Y-92692380D01*
X189178571Y-91692380D01*
X190083333Y-92692380D02*
X189511904Y-92692380D01*
X189797619Y-92692380D02*
X189797619Y-91692380D01*
X189702380Y-91835238D01*
X189607142Y-91930476D01*
X189511904Y-91978095D01*
X181273333Y-73357142D02*
X181225714Y-73404761D01*
X181082857Y-73452380D01*
X180987619Y-73452380D01*
X180844761Y-73404761D01*
X180749523Y-73309523D01*
X180701904Y-73214285D01*
X180654285Y-73023809D01*
X180654285Y-72880952D01*
X180701904Y-72690476D01*
X180749523Y-72595238D01*
X180844761Y-72500000D01*
X180987619Y-72452380D01*
X181082857Y-72452380D01*
X181225714Y-72500000D01*
X181273333Y-72547619D01*
X181606666Y-72452380D02*
X182225714Y-72452380D01*
X181892380Y-72833333D01*
X182035238Y-72833333D01*
X182130476Y-72880952D01*
X182178095Y-72928571D01*
X182225714Y-73023809D01*
X182225714Y-73261904D01*
X182178095Y-73357142D01*
X182130476Y-73404761D01*
X182035238Y-73452380D01*
X181749523Y-73452380D01*
X181654285Y-73404761D01*
X181606666Y-73357142D01*
D14*
X154696800Y-84315171D02*
X154696800Y-84750600D01*
X154667771Y-84837685D01*
X154609714Y-84895742D01*
X154522628Y-84924771D01*
X154464571Y-84924771D01*
X154958057Y-84373228D02*
X154987085Y-84344200D01*
X155045142Y-84315171D01*
X155190285Y-84315171D01*
X155248342Y-84344200D01*
X155277371Y-84373228D01*
X155306400Y-84431285D01*
X155306400Y-84489342D01*
X155277371Y-84576428D01*
X154929028Y-84924771D01*
X155306400Y-84924771D01*
%LPC*%
G36*
G01*
X161355000Y-63160000D02*
X160105000Y-63160000D01*
G75*
G02*
X159480000Y-62535000I0J625000D01*
G01*
X159480000Y-61285000D01*
G75*
G02*
X160105000Y-60660000I625000J0D01*
G01*
X161355000Y-60660000D01*
G75*
G02*
X161980000Y-61285000I0J-625000D01*
G01*
X161980000Y-62535000D01*
G75*
G02*
X161355000Y-63160000I-625000J0D01*
G01*
G37*
D16*
X160730000Y-56830000D03*
X181050000Y-69530000D03*
X181050000Y-59370000D03*
X181050000Y-49210000D03*
X160730000Y-49210000D03*
D17*
X137750000Y-49070000D03*
X137750000Y-97090000D03*
X201610000Y-49070000D03*
X201610000Y-97090000D03*
D18*
X191100000Y-86210000D03*
X193720000Y-86210000D03*
X191100000Y-83710000D03*
X193720000Y-83710000D03*
X191100000Y-81710000D03*
X193720000Y-81710000D03*
X191100000Y-79210000D03*
X193720000Y-79210000D03*
D19*
X196430000Y-89280000D03*
X196430000Y-76140000D03*
X190750000Y-89280000D03*
X190750000Y-76140000D03*
D20*
X165390000Y-78360000D03*
X160690000Y-78360000D03*
D21*
X155990000Y-78360000D03*
D22*
X199790000Y-62720000D03*
D23*
X199790000Y-57720000D03*
D24*
X146220000Y-86470000D03*
G36*
G01*
X138720000Y-87470000D02*
X138720000Y-85470000D01*
G75*
G02*
X139470000Y-84720000I750000J0D01*
G01*
X140970000Y-84720000D01*
G75*
G02*
X141720000Y-85470000I0J-750000D01*
G01*
X141720000Y-87470000D01*
G75*
G02*
X140970000Y-88220000I-750000J0D01*
G01*
X139470000Y-88220000D01*
G75*
G02*
X138720000Y-87470000I0J750000D01*
G01*
G37*
G36*
G01*
X141470000Y-92045000D02*
X141470000Y-90295000D01*
G75*
G02*
X142345000Y-89420000I875000J0D01*
G01*
X144095000Y-89420000D01*
G75*
G02*
X144970000Y-90295000I0J-875000D01*
G01*
X144970000Y-92045000D01*
G75*
G02*
X144095000Y-92920000I-875000J0D01*
G01*
X142345000Y-92920000D01*
G75*
G02*
X141470000Y-92045000I0J875000D01*
G01*
G37*
D25*
X136240000Y-73880000D03*
D26*
X140440000Y-73880000D03*
X144640000Y-73880000D03*
D27*
X138340000Y-68330000D03*
X144640000Y-77730000D03*
D25*
X136240000Y-60400000D03*
D26*
X140440000Y-60400000D03*
X144640000Y-60400000D03*
D27*
X138340000Y-54850000D03*
X144640000Y-64250000D03*
G36*
G01*
X200365000Y-70759999D02*
X200365000Y-71660001D01*
G75*
G02*
X200115001Y-71910000I-249999J0D01*
G01*
X199464999Y-71910000D01*
G75*
G02*
X199215000Y-71660001I0J249999D01*
G01*
X199215000Y-70759999D01*
G75*
G02*
X199464999Y-70510000I249999J0D01*
G01*
X200115001Y-70510000D01*
G75*
G02*
X200365000Y-70759999I0J-249999D01*
G01*
G37*
G36*
G01*
X198315000Y-70759999D02*
X198315000Y-71660001D01*
G75*
G02*
X198065001Y-71910000I-249999J0D01*
G01*
X197414999Y-71910000D01*
G75*
G02*
X197165000Y-71660001I0J249999D01*
G01*
X197165000Y-70759999D01*
G75*
G02*
X197414999Y-70510000I249999J0D01*
G01*
X198065001Y-70510000D01*
G75*
G02*
X198315000Y-70759999I0J-249999D01*
G01*
G37*
G36*
G01*
X181315000Y-98299999D02*
X181315000Y-99200001D01*
G75*
G02*
X181065001Y-99450000I-249999J0D01*
G01*
X180414999Y-99450000D01*
G75*
G02*
X180165000Y-99200001I0J249999D01*
G01*
X180165000Y-98299999D01*
G75*
G02*
X180414999Y-98050000I249999J0D01*
G01*
X181065001Y-98050000D01*
G75*
G02*
X181315000Y-98299999I0J-249999D01*
G01*
G37*
G36*
G01*
X179265000Y-98299999D02*
X179265000Y-99200001D01*
G75*
G02*
X179015001Y-99450000I-249999J0D01*
G01*
X178364999Y-99450000D01*
G75*
G02*
X178115000Y-99200001I0J249999D01*
G01*
X178115000Y-98299999D01*
G75*
G02*
X178364999Y-98050000I249999J0D01*
G01*
X179015001Y-98050000D01*
G75*
G02*
X179265000Y-98299999I0J-249999D01*
G01*
G37*
G36*
G01*
X197165000Y-68290001D02*
X197165000Y-67389999D01*
G75*
G02*
X197414999Y-67140000I249999J0D01*
G01*
X198065001Y-67140000D01*
G75*
G02*
X198315000Y-67389999I0J-249999D01*
G01*
X198315000Y-68290001D01*
G75*
G02*
X198065001Y-68540000I-249999J0D01*
G01*
X197414999Y-68540000D01*
G75*
G02*
X197165000Y-68290001I0J249999D01*
G01*
G37*
G36*
G01*
X199215000Y-68290001D02*
X199215000Y-67389999D01*
G75*
G02*
X199464999Y-67140000I249999J0D01*
G01*
X200115001Y-67140000D01*
G75*
G02*
X200365000Y-67389999I0J-249999D01*
G01*
X200365000Y-68290001D01*
G75*
G02*
X200115001Y-68540000I-249999J0D01*
G01*
X199464999Y-68540000D01*
G75*
G02*
X199215000Y-68290001I0J249999D01*
G01*
G37*
D28*
X165770000Y-95520000D03*
X165770000Y-88570000D03*
G36*
G01*
X148340001Y-49055000D02*
X147439999Y-49055000D01*
G75*
G02*
X147190000Y-48805001I0J249999D01*
G01*
X147190000Y-48154999D01*
G75*
G02*
X147439999Y-47905000I249999J0D01*
G01*
X148340001Y-47905000D01*
G75*
G02*
X148590000Y-48154999I0J-249999D01*
G01*
X148590000Y-48805001D01*
G75*
G02*
X148340001Y-49055000I-249999J0D01*
G01*
G37*
G36*
G01*
X148340001Y-47005000D02*
X147439999Y-47005000D01*
G75*
G02*
X147190000Y-46755001I0J249999D01*
G01*
X147190000Y-46104999D01*
G75*
G02*
X147439999Y-45855000I249999J0D01*
G01*
X148340001Y-45855000D01*
G75*
G02*
X148590000Y-46104999I0J-249999D01*
G01*
X148590000Y-46755001D01*
G75*
G02*
X148340001Y-47005000I-249999J0D01*
G01*
G37*
G36*
G01*
X144059999Y-45855000D02*
X144960001Y-45855000D01*
G75*
G02*
X145210000Y-46104999I0J-249999D01*
G01*
X145210000Y-46755001D01*
G75*
G02*
X144960001Y-47005000I-249999J0D01*
G01*
X144059999Y-47005000D01*
G75*
G02*
X143810000Y-46755001I0J249999D01*
G01*
X143810000Y-46104999D01*
G75*
G02*
X144059999Y-45855000I249999J0D01*
G01*
G37*
G36*
G01*
X144059999Y-47905000D02*
X144960001Y-47905000D01*
G75*
G02*
X145210000Y-48154999I0J-249999D01*
G01*
X145210000Y-48805001D01*
G75*
G02*
X144960001Y-49055000I-249999J0D01*
G01*
X144059999Y-49055000D01*
G75*
G02*
X143810000Y-48805001I0J249999D01*
G01*
X143810000Y-48154999D01*
G75*
G02*
X144059999Y-47905000I249999J0D01*
G01*
G37*
D29*
X173710000Y-89620000D03*
D30*
X178710000Y-89620000D03*
D31*
X192750000Y-94290000D03*
X184750000Y-94290000D03*
X192750000Y-98790000D03*
X184750000Y-98790000D03*
D29*
X178940000Y-79250000D03*
D30*
X183940000Y-79250000D03*
D32*
X155200000Y-87570000D03*
D33*
X155636600Y-93270000D03*
M02*
